<?xml version="1.0" encoding="UTF-8" standalone="no"?>
<svg
   width="31.997267mm"
   height="29.727739mm"
   viewBox="0 0 31.997267 29.727739"
   version="1.1"
   id="svg1"
   xml:space="preserve"
   sodipodi:docname="p2_brain.svg"
   xmlns:inkscape="http://www.inkscape.org/namespaces/inkscape"
   xmlns:sodipodi="http://sodipodi.sourceforge.net/DTD/sodipodi-0.dtd"
   xmlns="http://www.w3.org/2000/svg"
   xmlns:svg="http://www.w3.org/2000/svg"><sodipodi:namedview
     id="namedview1"
     pagecolor="#ffffff"
     bordercolor="#000000"
     borderopacity="0.25"
     inkscape:showpageshadow="2"
     inkscape:pageopacity="0.0"
     inkscape:pagecheckerboard="0"
     inkscape:deskcolor="#d1d1d1"
     inkscape:document-units="mm"
     inkscape:zoom="0.84096521"
     inkscape:cx="250.90218"
     inkscape:cy="177.17737"
     inkscape:window-width="1920"
     inkscape:window-height="1027"
     inkscape:window-x="1792"
     inkscape:window-y="25"
     inkscape:window-maximized="1"
     inkscape:current-layer="layer1"
     showguides="true" /><defs
     id="defs1" /><g
     inkscape:label="Layer 1"
     inkscape:groupmode="layer"
     id="layer1"
     transform="translate(-63.926331,-132.98465)"><path
       style="fill:#000000;stroke-width:0.671197"
       d="m 74.279808,162.62018 c -1.593123,-0.37797 -2.792295,-1.64914 -3.107396,-3.29397 -0.149611,-0.78094 -0.205055,-0.82008 -1.199674,-0.84686 -3.254112,-0.0876 -4.644698,-2.96308 -3.124915,-6.46172 0.124337,-0.28623 0.04483,-0.45308 -0.267294,-0.56095 -3.32689,-1.14972 -3.59541,-6.03372 -0.41319,-7.51496 0.587108,-0.27329 0.776697,-0.48648 0.662892,-0.74543 -1.513734,-3.44435 0.08623,-6.5591 3.371167,-6.56285 0.642108,-6.5e-4 0.798913,-0.14583 1.327283,-1.22817 1.407876,-2.88393 4.88982,-3.26337 6.856428,-0.74719 0.653445,0.83605 1.269564,23.04505 0.701695,25.29343 -0.435613,1.72469 -2.935686,3.11265 -4.806996,2.66867 z m 0.604176,-1.84635 c 0,-0.97951 -0.09338,-1.19308 -0.718994,-1.64456 -1.474405,-1.06404 -0.729281,-3.17176 1.12129,-3.17176 1.023453,0 1.754684,0.73222 1.754684,1.75706 0,0.65514 -0.711202,1.61164 -1.19833,1.61164 -0.131812,0 -0.239657,0.579 -0.239657,1.28666 0,1.43775 0.144589,1.52675 1.324263,0.81509 1.785208,-1.07695 2.538692,-12.395 0.825191,-12.395 -0.432474,0 -0.783728,0.14552 -0.867873,0.35955 -0.413198,1.05107 -2.397863,1.22059 -3.084655,0.26348 -1.406628,-1.96026 1.341072,-3.99753 2.89056,-2.14318 1.326286,1.58722 1.78848,0.89187 1.78848,-2.69073 0,-3.27512 0,-3.27512 -2.995798,-3.27512 -1.647695,0 -2.995806,0.0854 -2.995806,0.18982 0,0.52042 -1.032138,1.2138 -1.806812,1.2138 -1.70839,0 -2.477252,-2.01025 -1.15666,-3.02421 0.888709,-0.68236 1.69051,-0.61233 2.48415,0.21696 1.109451,1.1593 2.156973,1.00712 2.156973,-0.31335 0,-0.85281 -0.09477,-1.05732 -0.592543,-1.2787 -1.167532,-0.51926 -1.087841,-2.36348 0.128665,-2.97753 2.019688,-1.01946 3.729645,1.64996 1.901865,2.96901 -1.578972,1.13949 -1.034257,2.30238 1.07849,2.30238 1.859575,0 2.571877,-2.4168 1.470565,-4.98961 -1.305466,-3.04978 -5.580157,-2.55755 -6.123335,0.7051 -0.14857,0.89242 -0.14857,0.89242 -1.505662,0.91315 -3.936656,0.0601 -4.993373,4.85556 -1.394264,6.32717 1.566335,0.64046 2.639574,2.0021 2.639574,3.34889 0,1.05015 -0.62456,0.91587 -0.802872,-0.1726 -0.389327,-2.37654 -3.245227,-3.36462 -5.165725,-1.78724 -2.258585,1.85507 -0.827999,5.71446 2.118227,5.71446 0.78248,0 1.050248,0.59832 0.380095,0.84933 -2.311636,0.86587 -1.200102,5.93486 1.301397,5.93486 0.571317,0 0.248896,-1.45228 -0.467416,-2.10544 -1.679165,-1.53109 -0.09974,-3.94234 1.915905,-2.92493 1.212621,0.6121 1.249099,2.52556 0.05798,3.03889 -0.941494,0.40573 -0.77788,2.08054 0.183134,1.87451 0.718071,-0.15395 0.718986,-0.15276 0.718986,0.92878 0,1.34819 0.513008,2.34756 1.509539,2.94066 1.174319,0.69892 1.366427,0.60511 1.366427,-0.66729 z m 8.545261,1.72785 c -1.119725,-0.39898 -1.923188,-1.1054 -2.420331,-2.12802 -0.520733,-1.07114 -0.564079,-23.54195 -0.04778,-24.74821 1.467506,-3.42832 6.550683,-3.38456 7.609653,0.0655 0.258431,0.84195 0.330375,0.89161 1.485263,1.02512 2.921166,0.3377 4.60141,3.35749 3.277982,5.89129 -0.265839,0.50898 -0.378855,0.95941 -0.251143,1.00097 3.787612,1.23236 3.787612,6.80958 0,8.04195 -0.127712,0.0416 -0.0147,0.49199 0.251143,1.00097 1.380799,2.64363 -0.689393,5.94703 -3.740044,5.96798 -0.683956,0.005 -0.761202,0.084 -0.898606,0.92278 -0.366017,2.23425 -3.057217,3.74672 -5.266184,2.95963 z m 0.801638,-1.75385 c 0,-0.97616 -0.11331,-1.26229 -0.743462,-1.87739 -1.175154,-1.14707 -0.421603,-2.89733 1.2474,-2.89733 1.676115,0 2.377649,1.74604 1.173706,2.92122 -0.965482,0.94241 -1.10338,3.15007 -0.179744,2.87771 1.329757,-0.39213 2.443816,-2.1141 2.288939,-3.53795 -0.06492,-0.59687 -0.0066,-0.65575 0.587026,-0.59507 0.836308,0.0854 1.033608,-1.67431 0.216113,-1.92757 -0.447497,-0.13864 -0.995025,-1.0448 -0.995025,-1.64679 0,-0.67481 1.094753,-1.60062 1.892699,-1.60062 1.669002,0 2.422553,1.75027 1.2474,2.89734 -1.564142,1.52677 -0.826684,3.00051 0.802673,1.60408 1.592369,-1.3647 1.624393,-3.31287 0.08263,-5.02688 -0.77115,-0.85732 -0.749798,-0.88828 0.783197,-1.13529 1.114466,-0.17958 2.352759,-1.41725 2.539048,-2.53777 0.677316,-4.07411 -5.150297,-5.42458 -6.180204,-1.43218 -0.278661,1.08021 -0.931848,1.43676 -0.922513,0.50357 0.01506,-1.51131 1.154363,-2.85394 3.185189,-3.75385 2.007302,-0.88947 2.337138,-3.47982 0.652493,-5.12421 -0.907446,-0.88576 -1.258479,-0.9897 -3.030925,-0.89739 -0.700019,0.0365 -0.755722,-0.0218 -0.907482,-0.9481 -0.52436,-3.20085 -4.777773,-3.79031 -6.144473,-0.85152 -1.257349,2.70362 -0.636208,5.0833 1.326825,5.0833 1.931039,0 2.813521,-1.55663 1.261617,-2.22541 -1.26446,-0.54491 -1.152723,-2.51119 0.173431,-3.05206 2.051749,-0.83679 3.580956,1.69014 1.800415,2.97509 -1.188566,0.85775 -1.062323,2.30238 0.201193,2.30238 0.746216,0 0.971228,-0.10935 1.190168,-0.57838 0.529493,-1.13434 2.56475,-0.95914 3.138571,0.27017 0.894151,1.91557 -1.805261,3.37729 -3.14685,1.70401 -1.998632,-2.49275 -6.293419,-0.71108 -6.362874,2.63963 -0.07516,3.62568 0.371794,4.16948 2.066949,2.51483 1.12731,-1.10037 3.152508,-0.34895 3.152508,1.16969 0,1.51863 -2.025198,2.27005 -3.152508,1.16968 -1.853991,-1.8097 -2.120103,-1.26839 -2.120103,4.31262 0,5.84969 0.286363,6.92208 2.037148,7.62895 0.79234,0.3199 0.838825,0.26846 0.838825,-0.92851 z"
       id="path1" /></g></svg>
